<?xml version="1.0" standalone="no"?>
<!DOCTYPE svg PUBLIC "-//W3C//DTD SVG 20010904//EN"
 "http://www.w3.org/TR/2001/REC-SVG-20010904/DTD/svg10.dtd">
<svg version="1.0" xmlns="http://www.w3.org/2000/svg"
 width="512.000000pt" height="512.000000pt" viewBox="0 0 512.000000 512.000000"
 preserveAspectRatio="xMidYMid meet">
<metadata>
Created by potrace 1.11, written by Peter Selinger 2001-2013
</metadata>
<g transform="translate(0.000000,512.000000) scale(0.100000,-0.100000)"
fill="#000000" stroke="none">
<path d="M700 5111 c0 -5 5 -22 11 -38 6 -15 11 -66 11 -112 0 -109 1 -111
136 -110 57 1 106 -2 109 -5 10 -10 6 -405 -4 -419 -6 -6 -9 -31 -8 -54 2 -24
-2 -43 -7 -43 -5 0 -6 -4 -3 -10 4 -6 -5 -10 -21 -10 -15 0 -25 -3 -21 -6 6
-7 -17 -34 -29 -34 -4 0 -12 -7 -18 -14 -6 -8 -18 -16 -26 -18 -20 -4 -39 -21
-33 -30 2 -5 -3 -8 -11 -8 -8 0 -18 -9 -21 -21 -4 -11 -9 -18 -12 -15 -3 3
-12 -2 -20 -10 -8 -8 -19 -11 -25 -8 -7 4 -8 2 -4 -4 4 -7 2 -12 -3 -12 -6 0
-11 -6 -11 -12 0 -14 -91 -105 -99 -100 -2 2 -7 -1 -10 -6 -3 -6 -13 -12 -21
-14 -18 -4 -110 -93 -110 -106 0 -5 -7 -16 -16 -23 -9 -7 -20 -22 -25 -34 -14
-31 -32 -58 -53 -77 -10 -10 -16 -18 -12 -18 4 0 1 -10 -6 -22 -7 -13 -11 -26
-10 -30 1 -5 -3 -8 -9 -8 -9 0 -11 -27 -9 -187 1 -23 -4 -44 -10 -48 -5 -3
-10 -20 -10 -36 0 -18 -4 -28 -10 -24 -6 3 -10 -4 -10 -18 0 -14 -7 -30 -15
-37 -8 -7 -12 -16 -9 -21 3 -5 -1 -9 -8 -9 -8 0 -15 -12 -16 -27 -1 -16 -9
-33 -17 -39 -8 -6 -12 -13 -9 -17 3 -3 -4 -23 -16 -46 -11 -23 -18 -41 -14
-41 3 0 -1 -11 -10 -25 -9 -14 -14 -30 -11 -35 3 -5 1 -11 -5 -15 -5 -3 -10
-17 -10 -30 0 -13 -4 -27 -10 -30 -5 -3 -10 -23 -10 -44 0 -20 -5 -42 -12 -49
-7 -7 -8 -12 -3 -12 4 0 0 -10 -11 -22 -12 -14 -14 -18 -4 -13 8 4 5 -3 -7
-17 -13 -13 -23 -30 -23 -37 0 -7 -3 -10 -8 -8 -4 3 -7 -12 -6 -34 0 -21 -3
-39 -8 -39 -4 0 -7 -3 -7 -7 1 -5 1 -10 -1 -13 -1 -3 -2 -57 -2 -120 -1 -128
7 -184 30 -211 9 -10 17 -44 19 -81 3 -34 10 -69 16 -77 10 -12 9 -13 -3 -6
-12 7 -13 6 -3 -6 6 -8 12 -34 14 -59 2 -25 6 -47 11 -50 4 -3 8 -20 10 -37 1
-17 5 -30 9 -27 4 2 9 -9 12 -25 3 -16 14 -31 23 -35 13 -5 14 -4 6 7 -9 10
-8 14 3 14 7 0 14 -3 13 -6 -2 -22 4 -31 15 -25 9 6 9 4 1 -7 -15 -20 -26 -51
-14 -44 5 3 8 -3 7 -14 0 -11 -4 -18 -8 -15 -4 2 -10 0 -14 -6 -3 -5 -2 -10 3
-10 4 0 14 -23 21 -50 8 -30 17 -47 23 -43 7 3 8 1 4 -6 -4 -6 -3 -18 3 -25 6
-7 12 -21 14 -32 2 -10 9 -30 17 -44 14 -24 16 -30 19 -58 0 -7 6 -10 11 -7 6
3 10 -1 10 -9 0 -9 5 -16 11 -16 5 0 8 -4 4 -9 -3 -5 2 -17 11 -25 8 -9 12
-16 8 -16 -5 0 -3 -5 4 -12 7 -7 12 -20 12 -30 0 -10 5 -18 11 -18 5 0 7 -5 4
-10 -3 -6 1 -13 9 -16 9 -3 16 -14 16 -23 0 -9 9 -22 20 -29 12 -7 17 -18 13
-27 -3 -10 0 -15 8 -13 9 2 13 -4 11 -16 -2 -11 1 -15 7 -11 6 3 11 0 11 -8 0
-8 14 -28 30 -46 17 -17 27 -31 23 -31 -4 0 10 -16 32 -36 22 -20 31 -31 20
-24 -11 7 0 -6 25 -28 25 -23 41 -42 35 -42 -5 0 1 -7 15 -15 14 -8 19 -14 11
-15 -11 0 -10 -4 4 -13 10 -8 15 -19 11 -26 -4 -6 0 -14 11 -18 21 -8 44 -29
38 -35 -2 -2 9 -12 24 -22 15 -11 36 -31 46 -46 10 -15 30 -35 45 -45 15 -10
35 -31 46 -47 10 -15 27 -28 37 -28 10 0 16 -3 14 -7 -2 -5 7 -18 20 -30 13
-12 23 -19 23 -15 1 4 9 -3 18 -14 10 -12 28 -25 40 -28 12 -4 21 -13 19 -19
-1 -7 4 -11 10 -10 7 2 13 -2 13 -7 0 -6 6 -10 14 -10 8 0 17 -9 21 -20 3 -11
9 -19 13 -19 19 3 33 -2 28 -10 -3 -5 8 -14 25 -22 18 -7 42 -23 55 -36 13
-13 27 -23 32 -23 5 0 15 -7 22 -15 7 -8 16 -12 21 -9 5 3 12 -2 15 -10 3 -9
11 -16 17 -16 5 0 25 -11 42 -25 18 -13 35 -21 39 -18 3 4 6 1 6 -6 0 -7 4 -9
10 -6 5 3 10 1 10 -4 0 -6 6 -11 14 -11 8 0 17 -7 20 -16 3 -8 10 -13 15 -9 5
3 12 1 16 -5 4 -6 10 -8 15 -5 5 3 13 -2 17 -10 5 -8 18 -17 29 -19 11 -2 37
-14 57 -25 21 -12 44 -21 53 -21 8 0 12 -4 9 -10 -4 -6 7 -10 27 -10 25 0 29
-3 18 -10 -11 -7 -7 -10 18 -10 17 0 32 -5 32 -10 0 -6 6 -10 13 -9 12 2 36
-5 74 -23 12 -6 30 -12 40 -13 33 -4 63 -17 58 -25 -2 -4 6 -6 18 -5 12 1 31
-4 42 -10 11 -7 28 -11 38 -9 9 1 17 -2 17 -7 0 -5 16 -9 35 -9 19 0 35 -4 35
-10 0 -5 11 -10 25 -10 14 0 25 -4 25 -10 0 -5 14 -10 30 -10 17 0 30 -5 30
-12 0 -10 3 -9 9 1 5 7 10 9 12 3 2 -6 20 -12 39 -13 19 -2 38 -8 42 -14 5 -6
8 -4 8 5 0 11 2 12 8 3 4 -7 24 -13 45 -15 20 -1 37 -5 37 -8 0 -4 7 -7 15 -7
8 0 12 4 9 9 -3 4 0 8 5 8 6 0 11 -4 11 -8 0 -9 18 -11 112 -15 38 -1 68 -5
68 -9 0 -3 9 -4 20 -1 11 3 28 -1 37 -8 15 -12 16 -12 8 1 -7 12 -6 13 6 4 16
-13 97 -13 118 0 10 6 12 5 7 -3 -4 -6 15 2 42 18 47 28 102 33 102 9 0 -5 5
-6 10 -3 6 3 10 2 10 -4 0 -6 7 -8 15 -5 8 4 21 1 29 -5 7 -6 16 -8 20 -4 6 7
62 13 124 15 20 0 31 5 29 12 -3 7 15 12 52 13 30 1 57 5 58 10 2 4 23 7 48 6
25 0 48 3 51 8 3 5 14 9 25 9 11 0 17 -5 14 -10 -4 -6 10 -10 34 -10 23 0 41
5 41 10 0 6 16 10 36 10 21 0 33 4 29 10 -3 6 5 10 19 10 14 0 41 9 61 20 19
11 37 20 40 20 14 0 85 36 85 42 0 5 9 8 21 8 11 0 17 5 14 10 -3 6 -1 10 5
10 11 0 44 32 70 69 8 12 18 21 22 21 4 0 19 11 34 25 15 14 31 25 36 25 15 0
38 27 30 35 -4 4 -2 5 3 4 19 -6 55 12 55 27 0 8 4 13 8 10 5 -3 15 4 22 15 8
10 18 19 23 19 5 0 43 34 83 75 41 42 74 72 74 68 0 -5 5 0 11 10 6 9 14 15
20 12 5 -4 9 1 9 10 0 9 4 14 8 11 4 -2 18 11 31 30 13 19 28 34 33 34 5 0 21
14 35 30 13 17 29 28 33 25 5 -3 10 0 12 6 2 5 18 11 37 11 18 1 35 7 38 14 2
7 11 10 18 8 7 -3 23 0 36 6 27 15 99 87 99 100 0 5 10 16 22 24 12 9 19 16
14 16 -5 0 1 8 12 19 12 10 22 24 22 30 0 16 26 42 34 34 3 -4 6 1 6 10 0 9
13 41 29 72 16 31 27 63 24 71 -3 8 0 14 6 14 7 0 11 16 10 43 0 23 1 49 4 57
3 8 8 25 12 38 4 12 11 22 16 22 5 0 8 3 8 8 -3 16 14 72 22 72 5 0 9 9 9 21
0 11 4 18 8 15 5 -3 9 11 10 31 1 19 6 41 13 49 6 7 8 18 4 24 -3 5 0 10 7 10
10 0 10 2 -1 9 -11 7 -11 9 0 13 8 3 13 23 14 54 1 27 6 59 13 70 6 12 9 31 7
43 -3 14 0 19 7 15 7 -5 9 -2 5 9 -3 9 -3 18 1 21 4 2 6 28 4 58 -4 65 -2 141
3 147 2 2 0 12 -6 22 -7 13 -6 19 1 19 6 0 8 5 5 11 -11 17 -13 59 -3 65 4 3
6 10 2 15 -3 6 -7 38 -9 72 -5 90 -9 125 -17 132 -4 4 -4 13 -1 21 3 8 0 14
-6 14 -6 0 -9 13 -7 30 2 17 0 30 -4 30 -7 0 -8 8 -11 55 -1 14 -7 25 -14 25
-8 0 -10 9 -7 26 3 16 -1 30 -9 35 -12 7 -11 9 1 9 12 1 12 3 -2 11 -14 7 -15
15 -8 34 7 18 6 24 -3 22 -7 -1 -15 -6 -19 -12 -4 -5 -5 6 -2 26 4 24 2 39 -6
44 -9 6 -11 4 -5 -5 5 -9 4 -11 -4 -6 -9 6 -9 11 -1 21 8 10 5 17 -12 29 -15
11 -17 16 -8 16 12 0 13 2 1 9 -11 7 -11 9 0 14 9 4 7 6 -5 6 -11 1 -17 4 -13
7 3 4 -4 15 -16 26 -12 11 -16 17 -9 13 16 -8 16 25 -1 46 -7 9 -17 14 -23 12
-6 -2 -11 3 -11 11 0 8 5 12 11 9 6 -4 5 0 -1 9 -7 8 -10 18 -6 22 4 4 -1 4
-11 0 -16 -6 -17 -4 -9 11 7 11 6 25 -1 41 -11 24 -33 27 -28 5 1 -7 -2 -10
-8 -6 -7 4 -6 13 1 27 10 18 9 20 -7 14 -17 -5 -17 -5 1 10 20 16 20 16 -1 10
-15 -5 -24 -2 -28 9 -4 11 -2 14 7 10 6 -4 1 2 -12 13 -13 10 -21 24 -17 30 3
5 -1 12 -9 16 -8 3 -15 11 -15 17 0 8 6 7 18 -2 15 -12 16 -12 5 2 -7 9 -10
19 -6 23 4 4 -1 4 -11 0 -15 -6 -17 -4 -11 16 5 15 4 20 -4 16 -10 -7 -16 7
-12 28 1 5 -4 4 -12 -2 -14 -12 -27 -6 -27 12 0 6 5 4 11 -4 9 -12 10 -12 5 3
-3 10 -6 21 -6 23 0 3 -4 2 -10 -1 -5 -3 -10 -1 -10 5 0 6 -5 8 -12 4 -10 -6
-10 -4 0 8 12 14 10 16 -10 11 -18 -4 -20 -3 -8 6 12 9 11 11 -8 11 -13 0 -21
4 -18 9 4 5 1 11 -4 13 -6 2 -12 10 -13 18 -2 8 -6 20 -10 27 -4 6 -8 31 -8
55 -1 23 -4 48 -8 53 -3 6 -7 21 -9 35 -2 13 -8 27 -13 31 -6 3 -9 10 -8 15 5
20 -23 66 -66 110 -25 26 -45 44 -45 40 0 -5 -40 27 -76 62 -8 7 -14 11 -14 7
0 -3 -11 6 -25 20 -14 14 -30 25 -35 25 -6 0 -10 6 -10 14 0 8 -9 17 -20 21
-12 4 -23 21 -30 43 -6 26 -20 43 -42 57 -18 10 -35 19 -38 19 -3 0 -11 6 -18
13 -8 7 -18 11 -23 8 -5 -4 -9 -1 -9 5 0 6 -4 8 -10 5 -5 -3 -10 -2 -10 3 0 5
-11 15 -25 22 -14 7 -25 20 -25 28 0 21 -50 57 -80 57 -32 1 -70 14 -70 24 0
11 -69 81 -80 81 -6 0 -10 5 -10 10 0 6 -6 10 -13 10 -7 0 -19 9 -27 19 -7 11
-17 18 -22 15 -4 -3 -8 1 -8 9 0 8 -11 18 -25 21 -14 4 -25 11 -25 16 0 6 -5
10 -11 10 -6 0 -27 14 -46 30 -19 17 -38 28 -44 25 -5 -4 -9 1 -9 10 0 9 -4
13 -10 10 -6 -3 -10 -1 -10 4 0 6 -6 11 -13 11 -7 0 -19 9 -27 20 -8 11 -22
20 -32 20 -10 0 -18 5 -18 11 0 5 -4 8 -9 4 -5 -3 -12 -1 -16 5 -7 12 -55 14
-55 2 0 -4 -13 -7 -30 -7 -16 -1 -30 3 -30 7 0 4 -6 8 -14 8 -17 0 -67 25 -61
31 2 3 -8 6 -22 7 -15 1 -29 6 -32 11 -5 7 -49 22 -73 25 -3 1 -10 4 -14 9 -4
4 -18 7 -30 7 -13 0 -26 5 -29 10 -3 6 -19 10 -35 10 -16 0 -32 5 -35 10 -3 6
-19 10 -36 10 -16 0 -29 5 -29 10 0 6 -7 10 -15 10 -8 0 -15 5 -15 11 0 5 -5
7 -11 3 -6 -3 -15 -1 -19 6 -4 7 -20 13 -34 13 -31 0 -106 -32 -106 -45 0 -4
-6 -8 -13 -8 -7 0 -22 -8 -33 -18 -21 -20 -131 -31 -120 -13 8 13 -105 21
-361 27 -144 3 -213 1 -213 -6 0 -6 -31 -10 -79 -10 -44 0 -82 -4 -85 -8 -3
-5 -24 -9 -47 -10 -24 -1 -45 -6 -48 -10 -3 -4 -17 -7 -31 -7 -14 1 -30 -3
-36 -7 -7 -5 -27 -11 -45 -13 -62 -8 -99 -17 -105 -26 -3 -5 -14 -9 -25 -9
-10 0 -27 -4 -37 -9 -19 -11 -73 -25 -84 -23 -5 1 -8 -3 -8 -8 0 -6 -6 -10
-13 -10 -7 0 -30 -9 -52 -20 -22 -11 -45 -20 -52 -20 -7 0 -13 -4 -13 -8 0 -4
-10 -8 -22 -9 -11 -1 -24 -7 -28 -13 -25 -41 -34 218 -9 265 3 6 4 53 3 105
-1 93 11 164 28 154 4 -3 8 -1 8 4 0 5 12 8 27 6 15 -1 30 1 33 5 3 4 23 20
45 36 22 17 42 32 45 35 15 15 71 50 80 50 6 0 8 5 5 10 -8 13 -705 14 -705 1z
m4154 -2089 c3 -5 -1 -9 -9 -9 -8 0 -12 4 -9 9 3 4 7 8 9 8 2 0 6 -4 9 -8z
m56 -123 c0 -6 -4 -7 -10 -4 -5 3 -10 11 -10 16 0 6 5 7 10 4 6 -3 10 -11 10
-16z m-1401 -603 c11 -8 13 -8 8 1 -5 8 0 11 13 10 11 -1 20 -5 20 -9 0 -4 23
-8 51 -8 27 0 48 -4 45 -8 -2 -4 4 -14 16 -21 15 -9 18 -10 13 0 -6 9 -4 9 6
3 8 -5 31 -9 52 -10 54 -1 72 -25 72 -99 -1 -41 5 -71 18 -95 12 -22 15 -36 8
-38 -6 -2 -11 -13 -11 -23 0 -14 -4 -18 -12 -13 -10 6 -10 5 -1 -7 7 -9 9 -20
3 -29 -6 -9 -5 -17 3 -22 8 -5 8 -8 1 -8 -6 0 -10 -11 -9 -25 2 -14 -1 -25 -7
-25 -6 0 -5 -6 2 -15 10 -12 10 -18 -1 -32 -12 -15 -12 -16 1 -8 12 7 11 3 -3
-18 -9 -15 -15 -27 -12 -27 3 0 -7 -24 -24 -54 -16 -30 -27 -56 -25 -59 2 -2
-2 -10 -11 -17 -8 -7 -15 -19 -15 -27 0 -8 -5 -11 -11 -8 -6 4 -9 1 -8 -6 3
-22 -12 -49 -28 -49 -8 0 -11 -4 -8 -10 3 -5 -1 -10 -9 -10 -9 0 -16 -5 -16
-11 0 -6 -7 -9 -15 -5 -8 3 -15 1 -15 -4 0 -16 -32 -41 -47 -36 -8 3 -11 1 -8
-4 3 -6 -1 -10 -9 -10 -9 0 -16 -5 -16 -12 0 -6 -3 -9 -6 -5 -4 3 -19 0 -34
-8 -15 -8 -30 -11 -34 -8 -3 4 -6 2 -6 -3 0 -5 -12 -11 -27 -12 -16 -1 -29 -7
-31 -12 -5 -13 -22 7 -44 48 -11 21 -13 31 -5 27 6 -3 2 2 -10 11 -13 9 -23
23 -23 30 0 8 -5 14 -11 14 -5 0 -7 5 -4 10 3 6 1 10 -5 10 -6 0 -8 5 -5 10 3
6 2 10 -4 10 -6 0 -13 11 -17 25 -3 14 -10 25 -15 25 -5 0 -9 9 -9 21 0 11 -4
17 -10 14 -5 -3 -10 3 -10 14 0 12 -9 26 -20 33 -11 7 -20 23 -20 36 0 12 -7
25 -15 28 -8 4 -15 12 -15 20 0 8 -5 14 -11 14 -5 0 -7 5 -4 10 3 6 1 10 -5
10 -6 0 -8 5 -5 10 3 6 1 10 -5 10 -6 0 -8 5 -5 10 3 6 2 10 -3 10 -11 0 -52
73 -52 94 0 10 -5 14 -11 11 -13 -9 -8 27 6 37 6 5 5 8 -3 8 -8 0 -4 9 10 24
13 13 26 21 31 19 4 -2 10 3 13 11 3 9 10 13 15 10 5 -3 9 0 9 5 0 6 7 11 15
11 7 0 18 7 23 16 5 9 13 17 18 17 5 1 8 5 7 10 -2 4 6 7 16 7 11 0 23 9 26
20 3 11 11 20 16 20 5 0 9 5 9 10 0 6 18 29 39 50 22 22 36 40 33 40 -4 0 4 6
18 14 31 16 150 18 169 2z m331 -211 c0 -8 -4 -15 -10 -15 -5 0 -7 7 -4 15 4
8 8 15 10 15 2 0 4 -7 4 -15z m-1638 -210 c-3 -5 2 -4 11 4 15 12 17 11 17 -3
0 -9 6 -15 13 -13 6 1 11 -3 10 -9 -2 -11 0 -12 54 -15 18 -1 30 -5 28 -9 -2
-4 10 -6 28 -6 18 1 31 -4 30 -10 -1 -6 4 -11 12 -11 8 0 12 4 9 9 -3 4 0 8 5
8 6 0 11 -7 11 -15 0 -13 4 -14 20 -5 11 6 20 7 20 1 0 -16 70 -18 92 -2 16
11 19 11 13 1 -6 -10 -4 -12 11 -6 10 4 28 9 40 10 11 2 27 7 34 11 9 5 11 4
6 -3 -4 -7 -2 -12 4 -12 6 0 9 -4 6 -9 -4 -5 3 -7 14 -4 14 4 20 0 20 -11 0
-9 5 -16 11 -16 5 0 8 -4 4 -9 -3 -6 3 -14 12 -20 14 -8 15 -10 3 -11 -12 0
-12 -2 -2 -9 7 -4 14 -17 15 -29 0 -11 5 -18 9 -16 5 3 11 -8 14 -25 4 -18 11
-28 17 -24 6 3 7 1 3 -5 -7 -11 11 -51 29 -64 6 -5 4 -8 -5 -8 -10 0 -7 -5 8
-16 12 -8 22 -26 22 -40 0 -13 5 -24 10 -24 6 0 9 -3 9 -7 -4 -26 2 -43 14
-37 6 4 9 4 5 0 -3 -4 0 -26 7 -47 14 -39 14 -40 -12 -50 -17 -6 -30 -6 -38 1
-6 5 -15 7 -19 3 -10 -10 -60 -10 -67 0 -3 5 -27 10 -52 11 -26 1 -49 5 -53 9
-4 4 -21 7 -39 7 -17 0 -37 6 -44 13 -11 10 -12 9 -6 -3 6 -12 5 -13 -6 -2 -7
6 -26 12 -41 12 -15 0 -28 4 -28 8 0 4 -15 9 -32 10 -18 2 -34 7 -36 12 -2 6
-12 10 -23 10 -10 0 -19 3 -19 8 0 4 -14 8 -31 9 -17 1 -37 7 -45 14 -7 6 -18
8 -24 4 -5 -3 -10 -1 -10 4 0 6 -11 11 -24 11 -14 0 -28 5 -31 11 -4 6 -13 8
-21 5 -8 -3 -14 1 -14 9 0 13 -22 21 -33 13 -2 -2 -11 5 -21 15 -10 9 -23 17
-31 17 -7 0 -23 11 -36 24 -13 13 -29 21 -38 18 -10 -4 -12 -1 -6 8 6 10 4 12
-9 7 -10 -4 -19 -1 -23 9 -3 8 -12 13 -20 10 -9 -4 -11 -2 -7 6 5 8 2 9 -9 5
-13 -5 -17 -1 -17 14 0 11 -4 17 -10 14 -5 -3 -10 -1 -10 4 0 6 6 11 13 11 9
0 8 3 -2 9 -11 7 -9 10 8 16 12 3 19 11 16 16 -4 5 3 9 13 9 11 0 22 9 25 20
3 11 11 20 19 20 10 0 10 -2 -2 -10 -8 -5 -12 -12 -8 -15 4 -4 14 5 24 20 9
14 23 24 30 21 8 -3 13 -2 11 2 -1 5 10 20 25 34 15 14 25 28 21 31 -3 4 -1 7
6 7 7 0 17 13 22 29 8 21 15 28 26 24 10 -4 14 -2 10 4 -5 8 1 7 17 0 13 -7
22 -16 18 -22z"/>
</g>
</svg>
